<svg width="181" height="27" viewBox="0 0 181 27" fill="none" xmlns="http://www.w3.org/2000/svg">
<path d="M10.052 12.86H19.448V24.092C18.44 24.932 17.228 25.544 15.812 25.928C14.42 26.312 13.04 26.504 11.672 26.504C10.064 26.504 8.564 26.252 7.172 25.748C5.804 25.244 4.616 24.464 3.608 23.408C2.6 22.328 1.808 20.96 1.232 19.304C0.656 17.648 0.368 15.68 0.368 13.4C0.368 11.024 0.704 9.008 1.376 7.352C2.072 5.672 2.972 4.316 4.076 3.284C5.204 2.228 6.464 1.472 7.856 1.016C9.248 0.535999 10.664 0.295998 12.104 0.295998C13.544 0.295998 14.804 0.403998 15.884 0.619998C16.988 0.835999 17.864 1.064 18.512 1.304L17.504 5.444C16.904 5.204 16.232 5.024 15.488 4.904C14.744 4.76 13.796 4.688 12.644 4.688C11.612 4.688 10.664 4.844 9.8 5.156C8.936 5.468 8.18 5.984 7.532 6.704C6.908 7.4 6.416 8.3 6.056 9.404C5.72 10.508 5.552 11.852 5.552 13.436C5.552 14.948 5.72 16.256 6.056 17.36C6.392 18.44 6.86 19.34 7.46 20.06C8.06 20.756 8.756 21.272 9.548 21.608C10.364 21.944 11.228 22.112 12.14 22.112C12.764 22.112 13.376 22.04 13.976 21.896C14.576 21.728 15.08 21.488 15.488 21.176V16.424L10.052 15.848V12.86ZM32.9255 12.392C32.1815 12.128 31.5095 11.996 30.9095 11.996C30.0695 11.996 29.3615 12.224 28.7855 12.68C28.2335 13.112 27.8615 13.676 27.6695 14.372V26H22.9895V8H26.6255L27.1655 10.376H27.3095C27.7175 9.488 28.2695 8.804 28.9655 8.324C29.6615 7.844 30.4775 7.604 31.4135 7.604C32.0375 7.604 32.7455 7.736 33.5375 8L32.9255 12.392ZM50.0106 24.452C49.2906 25.028 48.3066 25.52 47.0586 25.928C45.8346 26.312 44.5266 26.504 43.1346 26.504C40.2306 26.504 38.1066 25.664 36.7626 23.984C35.4186 22.28 34.7466 19.952 34.7466 17C34.7466 13.832 35.5026 11.456 37.0146 9.872C38.5266 8.288 40.6506 7.496 43.3866 7.496C44.2986 7.496 45.1866 7.616 46.0506 7.856C46.9146 8.096 47.6826 8.492 48.3546 9.044C49.0266 9.596 49.5666 10.34 49.9746 11.276C50.3826 12.212 50.5866 13.376 50.5866 14.768C50.5866 15.272 50.5506 15.812 50.4786 16.388C50.4306 16.964 50.3466 17.564 50.2266 18.188H39.4266C39.4986 19.7 39.8826 20.84 40.5786 21.608C41.2986 22.376 42.4506 22.76 44.0346 22.76C45.0186 22.76 45.8946 22.616 46.6626 22.328C47.4546 22.016 48.0546 21.704 48.4626 21.392L50.0106 24.452ZM43.3146 11.24C42.0906 11.24 41.1786 11.612 40.5786 12.356C40.0026 13.076 39.6546 14.048 39.5346 15.272H46.2306C46.3266 13.976 46.1226 12.98 45.6186 12.284C45.1386 11.588 44.3706 11.24 43.3146 11.24ZM68.1161 24.452C67.3961 25.028 66.4121 25.52 65.1641 25.928C63.9401 26.312 62.6321 26.504 61.2401 26.504C58.3361 26.504 56.2121 25.664 54.8681 23.984C53.5241 22.28 52.8521 19.952 52.8521 17C52.8521 13.832 53.6081 11.456 55.1201 9.872C56.6321 8.288 58.7561 7.496 61.4921 7.496C62.4041 7.496 63.2921 7.616 64.1561 7.856C65.0201 8.096 65.7881 8.492 66.4601 9.044C67.1321 9.596 67.6721 10.34 68.0801 11.276C68.4881 12.212 68.6921 13.376 68.6921 14.768C68.6921 15.272 68.6561 15.812 68.5841 16.388C68.5361 16.964 68.4521 17.564 68.3321 18.188H57.5321C57.6041 19.7 57.9881 20.84 58.6841 21.608C59.4041 22.376 60.5561 22.76 62.1401 22.76C63.1241 22.76 64.0001 22.616 64.7681 22.328C65.5601 22.016 66.1601 21.704 66.5681 21.392L68.1161 24.452ZM61.4201 11.24C60.1961 11.24 59.2841 11.612 58.6841 12.356C58.1081 13.076 57.7601 14.048 57.6401 15.272H64.3361C64.4321 13.976 64.2281 12.98 63.7241 12.284C63.2441 11.588 62.4761 11.24 61.4201 11.24ZM83.0133 26V15.776C83.0133 14.312 82.7973 13.256 82.3653 12.608C81.9573 11.96 81.2493 11.636 80.2413 11.636C79.3533 11.636 78.5973 11.9 77.9733 12.428C77.3733 12.932 76.9413 13.568 76.6773 14.336V26H71.9973V8H75.7053L76.2453 10.376H76.3893C76.9413 9.608 77.6733 8.936 78.5853 8.36C79.4973 7.784 80.6733 7.496 82.1133 7.496C83.0013 7.496 83.7933 7.616 84.4893 7.856C85.1853 8.096 85.7733 8.492 86.2533 9.044C86.7333 9.596 87.0933 10.352 87.3333 11.312C87.5733 12.248 87.6933 13.412 87.6933 14.804V26H83.0133ZM102.631 26V15.776C102.631 14.312 102.427 13.256 102.019 12.608C101.611 11.96 100.867 11.636 99.7865 11.636C98.9945 11.636 98.2625 11.912 97.5905 12.464C96.9425 12.992 96.5105 13.676 96.2945 14.516V26H91.6145V0.799998H96.2945V10.016H96.4385C97.0145 9.248 97.7225 8.636 98.5625 8.18C99.4025 7.724 100.471 7.496 101.767 7.496C102.679 7.496 103.483 7.616 104.179 7.856C104.875 8.096 105.451 8.492 105.907 9.044C106.387 9.596 106.735 10.352 106.951 11.312C107.191 12.248 107.311 13.412 107.311 14.804V26H102.631ZM110.368 17C110.368 13.952 111.112 11.612 112.6 9.98C114.088 8.324 116.176 7.496 118.864 7.496C120.304 7.496 121.552 7.724 122.608 8.18C123.664 8.636 124.54 9.284 125.236 10.124C125.932 10.94 126.448 11.936 126.784 13.112C127.144 14.288 127.324 15.584 127.324 17C127.324 20.048 126.58 22.4 125.092 24.056C123.628 25.688 121.552 26.504 118.864 26.504C117.424 26.504 116.176 26.276 115.12 25.82C114.064 25.364 113.176 24.728 112.456 23.912C111.76 23.072 111.232 22.064 110.872 20.888C110.536 19.712 110.368 18.416 110.368 17ZM115.192 17C115.192 17.792 115.264 18.524 115.408 19.196C115.552 19.868 115.768 20.456 116.056 20.96C116.344 21.464 116.716 21.86 117.172 22.148C117.652 22.412 118.216 22.544 118.864 22.544C120.088 22.544 121 22.1 121.6 21.212C122.2 20.324 122.5 18.92 122.5 17C122.5 15.344 122.224 14.012 121.672 13.004C121.12 11.972 120.184 11.456 118.864 11.456C117.712 11.456 116.812 11.888 116.164 12.752C115.516 13.616 115.192 15.032 115.192 17ZM135.068 8V18.224C135.068 19.688 135.236 20.744 135.572 21.392C135.932 22.04 136.616 22.364 137.624 22.364C138.512 22.364 139.244 22.1 139.82 21.572C140.42 21.044 140.864 20.396 141.152 19.628V8H145.832V20.528C145.832 21.512 145.88 22.484 145.976 23.444C146.072 24.38 146.216 25.232 146.408 26H142.88L142.052 23.336H141.908C141.356 24.248 140.588 25.004 139.604 25.604C138.62 26.204 137.456 26.504 136.112 26.504C135.2 26.504 134.384 26.384 133.664 26.144C132.944 25.904 132.344 25.508 131.864 24.956C131.384 24.404 131.012 23.66 130.748 22.724C130.508 21.788 130.388 20.612 130.388 19.196V8H135.068ZM157.391 21.032C157.391 20.552 157.187 20.168 156.779 19.88C156.371 19.592 155.867 19.328 155.267 19.088C154.667 18.848 154.007 18.608 153.287 18.368C152.567 18.104 151.907 17.756 151.307 17.324C150.707 16.868 150.203 16.304 149.795 15.632C149.387 14.936 149.183 14.048 149.183 12.968C149.183 11.192 149.711 9.836 150.767 8.9C151.823 7.964 153.347 7.496 155.339 7.496C156.707 7.496 157.943 7.64 159.047 7.928C160.151 8.216 161.015 8.54 161.639 8.9L160.595 12.284C160.043 12.068 159.347 11.84 158.507 11.6C157.667 11.36 156.815 11.24 155.951 11.24C154.559 11.24 153.863 11.78 153.863 12.86C153.863 13.292 154.067 13.64 154.475 13.904C154.883 14.168 155.387 14.42 155.987 14.66C156.587 14.876 157.247 15.116 157.967 15.38C158.687 15.644 159.347 15.992 159.947 16.424C160.547 16.832 161.051 17.372 161.459 18.044C161.867 18.716 162.071 19.58 162.071 20.636C162.071 22.46 161.483 23.9 160.307 24.956C159.155 25.988 157.415 26.504 155.087 26.504C153.815 26.504 152.615 26.336 151.487 26C150.383 25.688 149.483 25.316 148.787 24.884L150.083 21.392C150.635 21.704 151.367 22.016 152.279 22.328C153.191 22.616 154.127 22.76 155.087 22.76C155.783 22.76 156.335 22.628 156.743 22.364C157.175 22.1 157.391 21.656 157.391 21.032ZM179.526 24.452C178.806 25.028 177.822 25.52 176.574 25.928C175.35 26.312 174.042 26.504 172.65 26.504C169.746 26.504 167.622 25.664 166.278 23.984C164.934 22.28 164.262 19.952 164.262 17C164.262 13.832 165.018 11.456 166.53 9.872C168.042 8.288 170.166 7.496 172.902 7.496C173.814 7.496 174.702 7.616 175.566 7.856C176.43 8.096 177.198 8.492 177.87 9.044C178.542 9.596 179.082 10.34 179.49 11.276C179.898 12.212 180.102 13.376 180.102 14.768C180.102 15.272 180.066 15.812 179.994 16.388C179.946 16.964 179.862 17.564 179.742 18.188H168.942C169.014 19.7 169.398 20.84 170.094 21.608C170.814 22.376 171.966 22.76 173.55 22.76C174.534 22.76 175.41 22.616 176.178 22.328C176.97 22.016 177.57 21.704 177.978 21.392L179.526 24.452ZM172.83 11.24C171.606 11.24 170.694 11.612 170.094 12.356C169.518 13.076 169.17 14.048 169.05 15.272H175.746C175.842 13.976 175.638 12.98 175.134 12.284C174.654 11.588 173.886 11.24 172.83 11.24Z" fill="#A3B2BA"/>
</svg>
