<svg width="34" height="34" viewBox="0 0 34 34" fill="none" xmlns="http://www.w3.org/2000/svg">
<path fill-rule="evenodd" clip-rule="evenodd" d="M0 17C0 7.61116 7.61116 0 17 0C26.3888 0 34 7.61116 34 17C34 26.3888 26.3888 34 17 34C7.61116 34 0 26.3888 0 17ZM25.6877 12.8019C25.4792 12.0007 24.8647 11.3699 24.0845 11.1558C22.6705 10.7667 17 10.7667 17 10.7667C17 10.7667 11.3295 10.7667 9.91543 11.1558C9.13518 11.3699 8.52071 12.0007 8.31218 12.8019C7.93333 14.2538 7.93333 17.2833 7.93333 17.2833C7.93333 17.2833 7.93333 20.3127 8.31218 21.7648C8.52071 22.5659 9.13518 23.1968 9.91543 23.411C11.3295 23.8 17 23.8 17 23.8C17 23.8 22.6705 23.8 24.0845 23.411C24.8647 23.1968 25.4792 22.5659 25.6877 21.7648C26.0667 20.3127 26.0667 17.2833 26.0667 17.2833C26.0667 17.2833 26.0667 14.2538 25.6877 12.8019Z" fill="#A3B2BA"/>
<path fill-rule="evenodd" clip-rule="evenodd" d="M15.3 20.3999V14.7333L19.8334 17.5667L15.3 20.3999Z" fill="#A3B2BA"/>
</svg>
